<svg width="19" height="19" viewBox="0 0 19 19" fill="none" xmlns="http://www.w3.org/2000/svg">
<path fill-rule="evenodd" clip-rule="evenodd" d="M6.24559 1.8553C6.79729 0.720383 7.94846 0 9.21037 0C10.4723 0 11.6234 0.720385 12.1751 1.8553L18.0641 13.9698C19.1942 16.2945 17.5011 19 14.9164 19H3.50437C0.919597 19 -0.773455 16.2945 0.35659 13.9698L6.24559 1.8553ZM9.21037 1C8.33126 1 7.5293 1.50185 7.14496 2.29249L1.25596 14.407C0.448782 16.0675 1.65811 18 3.50437 18H14.9164C16.7626 18 17.972 16.0675 17.1648 14.407L11.2758 2.29249C10.8914 1.50185 10.0895 1 9.21037 1Z" fill="#333333"/>
<path fill-rule="evenodd" clip-rule="evenodd" d="M8 14.5H10V15.5H8V14.5Z" fill="#333333"/>
<path fill-rule="evenodd" clip-rule="evenodd" d="M9.75 6.5V13.5H8.25V6.5H9.75Z" fill="#333333"/>
</svg>
