<svg width="12" height="13" viewBox="0 0 12 13" fill="none" xmlns="http://www.w3.org/2000/svg">
<path fill-rule="evenodd" clip-rule="evenodd" d="M12 0H0V1H12V0Z" fill="#333333"/>
<path fill-rule="evenodd" clip-rule="evenodd" d="M5 2.5V13H6V2.5H5Z" fill="#333333"/>
<path fill-rule="evenodd" clip-rule="evenodd" d="M0.163667 8.36997C0.367996 8.55572 0.68422 8.54066 0.869974 8.33633L5.16451 3.61235C5.35654 3.40111 5.68617 3.39327 5.88803 3.59513L10.6465 8.35355C10.8417 8.54881 11.1583 8.54881 11.3536 8.35355C11.5488 8.15829 11.5488 7.84171 11.3536 7.64644L6.59514 2.88802C5.98954 2.28243 5.00067 2.30596 4.42457 2.93967L0.130033 7.66366C-0.05572 7.86799 -0.0406617 8.18421 0.163667 8.36997Z" fill="#333333"/>
</svg>
