<svg width="18" height="18" viewBox="0 0 18 18" fill="none" xmlns="http://www.w3.org/2000/svg">
<path fill-rule="evenodd" clip-rule="evenodd" d="M12.5 5H11.5V4H12.5C13.8807 4 15 5.11929 15 6.5V11.5C15 12.8807 13.8807 14 12.5 14H5.5C4.11929 14 3 12.8807 3 11.5V10.5H4V11.5C4 12.3284 4.67157 13 5.5 13H12.5C13.3284 13 14 12.3284 14 11.5V6.5C14 5.67157 13.3284 5 12.5 5Z" fill="#333333"/>
<path fill-rule="evenodd" clip-rule="evenodd" d="M15.5 8H14.5V7H15.5C16.8807 7 18 8.11929 18 9.5V14.5C18 15.8807 16.8807 17 15.5 17H8.5C7.11929 17 6 15.8807 6 14.5V13.5H7V14.5C7 15.3284 7.67157 16 8.5 16H15.5C16.3284 16 17 15.3284 17 14.5V9.5C17 8.67157 16.3284 8 15.5 8Z" fill="#333333"/>
<path fill-rule="evenodd" clip-rule="evenodd" d="M10 2H2C1.44772 2 1 2.44772 1 3V9C1 9.55228 1.44772 10 2 10H10C10.5523 10 11 9.55229 11 9V3C11 2.44772 10.5523 2 10 2ZM2 1C0.895431 1 0 1.89543 0 3V9C0 10.1046 0.895431 11 2 11H10C11.1046 11 12 10.1046 12 9V3C12 1.89543 11.1046 1 10 1H2Z" fill="#333333"/>
</svg>
