<svg width="13" height="13" viewBox="0 0 13 13" fill="none" xmlns="http://www.w3.org/2000/svg">
<path fill-rule="evenodd" clip-rule="evenodd" d="M12.8536 0.146447C13.0488 0.341709 13.0488 0.658291 12.8536 0.853553L0.853553 12.8536C0.658291 13.0488 0.341709 13.0488 0.146447 12.8536C-0.0488155 12.6583 -0.0488155 12.3417 0.146447 12.1464L12.1464 0.146447C12.3417 -0.0488155 12.6583 -0.0488155 12.8536 0.146447Z" fill="#333333"/>
<path fill-rule="evenodd" clip-rule="evenodd" d="M0.146446 0.146446C0.341708 -0.0488157 0.658291 -0.0488158 0.853553 0.146446L12.8536 12.1464C13.0488 12.3417 13.0488 12.6583 12.8536 12.8536C12.6583 13.0488 12.3417 13.0488 12.1464 12.8536L0.146446 0.853554C-0.0488161 0.658291 -0.0488161 0.341709 0.146446 0.146446Z" fill="#333333"/>
</svg>
