<svg width="20" height="19" viewBox="0 0 20 19" fill="none" xmlns="http://www.w3.org/2000/svg">
<path fill-rule="evenodd" clip-rule="evenodd" d="M7.62491 1.10706C7.78756 0.456434 8.37215 0 9.04281 0H10.4444C11.115 0 11.6996 0.456435 11.8623 1.10706L12.0736 1.95229C12.103 2.06987 12.1751 2.17227 12.276 2.23949L12.9536 2.69125C13.0991 2.78822 13.2853 2.79982 13.4417 2.72164L14.2566 2.31422C14.8192 2.03288 15.4988 2.14316 15.9436 2.588L16.8309 3.4753C17.3236 3.96794 17.4 4.7398 17.0136 5.31948L16.7959 5.64592C16.699 5.79138 16.6874 5.97766 16.7655 6.13403L17.3418 7.2865C17.3889 7.38078 17.4654 7.45723 17.5597 7.50437L18.6793 8.06418C19.1744 8.31175 19.4872 8.81783 19.4872 9.37142V10.0583C19.4872 10.6559 19.1233 11.1933 18.5684 11.4153L17.2076 11.9596C17.0624 12.0177 16.9538 12.142 16.9159 12.2938L16.637 13.4095C16.6088 13.5223 16.6219 13.6415 16.6739 13.7455L17.173 14.7437C17.4543 15.3064 17.344 15.986 16.8992 16.4308L16.5318 16.7982C16.0175 17.3125 15.2033 17.3704 14.6214 16.934L13.8305 16.3408C13.6828 16.2301 13.4853 16.2123 13.3203 16.2948L12.2007 16.8546C12.1064 16.9017 12.0299 16.9782 11.9828 17.0725L11.423 18.1921C11.1754 18.6872 10.6694 19 10.1158 19H9.37142C8.81783 19 8.31175 18.6872 8.06418 18.1921L7.50437 17.0725C7.45723 16.9782 7.38078 16.9017 7.2865 16.8546L6.06403 16.2434C5.92687 16.1748 5.76543 16.1748 5.62828 16.2434L4.74345 16.6858C4.18077 16.9671 3.5012 16.8568 3.05636 16.412L2.588 15.9436C2.14316 15.4988 2.03288 14.8192 2.31422 14.2566L2.75664 13.3717C2.82521 13.2346 2.82521 13.0731 2.75664 12.936L2.20057 11.8238C2.13696 11.6966 2.02095 11.6036 1.88298 11.5691L1.10706 11.3751C0.456434 11.2124 0 10.6278 0 9.95719V9.37142C0 8.81783 0.312773 8.31175 0.807919 8.06418L1.92753 7.50437C2.02181 7.45723 2.09826 7.38078 2.1454 7.2865L2.75664 6.06403C2.82521 5.92687 2.82521 5.76544 2.75664 5.62828L2.31422 4.74345C2.03288 4.18077 2.14316 3.5012 2.58799 3.05636L3.09864 2.54572C3.51205 2.1323 4.13207 2.00504 4.67491 2.22218L6.03838 2.76757C6.18734 2.82715 6.35607 2.80958 6.48956 2.72059L7.2112 2.23949C7.31204 2.17227 7.38421 2.06987 7.4136 1.95229L7.62491 1.10706ZM9.04281 0.974359C8.81926 0.974359 8.62439 1.1265 8.57017 1.34338L8.35887 2.18861C8.27069 2.54133 8.0542 2.84853 7.75168 3.05021L7.03003 3.53131C6.62958 3.79827 6.12337 3.85098 5.67651 3.67224L4.31304 3.12685C4.13209 3.05447 3.92542 3.09689 3.78762 3.23469L3.27697 3.74534C3.12869 3.89362 3.09193 4.12014 3.18571 4.3077L3.62813 5.19253C3.83386 5.604 3.83386 6.08831 3.62813 6.49977L3.01689 7.72225C2.87547 8.0051 2.64612 8.23444 2.36327 8.37587L1.24367 8.93567C1.07862 9.0182 0.974359 9.18689 0.974359 9.37142V9.95719C0.974359 10.1807 1.1265 10.3756 1.34338 10.4298L2.11929 10.6238C2.53321 10.7273 2.88125 11.0065 3.07206 11.3881L3.62813 12.5002C3.83386 12.9117 3.83386 13.396 3.62813 13.8075L3.18571 14.6923C3.09193 14.8799 3.12869 15.1064 3.27697 15.2547L3.74534 15.723C3.89362 15.8713 4.12014 15.9081 4.3077 15.8143L5.19253 15.3719C5.604 15.1661 6.08831 15.1661 6.49977 15.3719L7.72225 15.9831C8.00509 16.1245 8.23444 16.3539 8.37587 16.6367L8.93567 17.7563C9.01819 17.9214 9.18689 18.0256 9.37142 18.0256H10.1158C10.3003 18.0256 10.469 17.9214 10.5515 17.7563L11.1113 16.6367C11.2527 16.3539 11.4821 16.1245 11.7649 15.9831L12.8845 15.4233C13.3797 15.1757 13.9722 15.2292 14.4151 15.5613L15.206 16.1545C15.4 16.3 15.6714 16.2807 15.8428 16.1092L16.2102 15.7418C16.3585 15.5936 16.3952 15.367 16.3015 15.1795L15.8024 14.1813C15.6463 13.8692 15.6071 13.5117 15.6917 13.1732L15.9706 12.0575C16.0845 11.6022 16.41 11.2292 16.8457 11.0549L18.2066 10.5106C18.3915 10.4366 18.5128 10.2575 18.5128 10.0583V9.37142C18.5128 9.18689 18.4086 9.0182 18.2435 8.93567L17.1239 8.37587C16.8411 8.23444 16.6117 8.0051 16.4703 7.72225L15.894 6.56977C15.6595 6.10066 15.6943 5.54184 15.9852 5.10544L16.2028 4.779C16.3317 4.58578 16.3062 4.32849 16.142 4.16428L15.2547 3.27697C15.1064 3.12869 14.8799 3.09193 14.6923 3.18571L13.8775 3.59313C13.4084 3.82769 12.8495 3.79289 12.4131 3.50196L11.7355 3.05021C11.433 2.84853 11.2165 2.54133 11.1283 2.18861L10.917 1.34338C10.8628 1.1265 10.6679 0.974359 10.4444 0.974359H9.04281Z" fill="black"/>
<path fill-rule="evenodd" clip-rule="evenodd" d="M9.74356 13.1539C11.627 13.1539 13.1538 11.627 13.1538 9.74359C13.1538 7.86016 11.627 6.33334 9.74356 6.33334C7.86013 6.33334 6.33331 7.86016 6.33331 9.74359C6.33331 11.627 7.86013 13.1539 9.74356 13.1539ZM9.74356 14.1282C12.1651 14.1282 14.1282 12.1651 14.1282 9.74359C14.1282 7.32204 12.1651 5.35898 9.74356 5.35898C7.32201 5.35898 5.35895 7.32204 5.35895 9.74359C5.35895 12.1651 7.32201 14.1282 9.74356 14.1282Z" fill="black"/>
</svg>
