<svg width="18" height="18" viewBox="0 0 18 18" fill="none" xmlns="http://www.w3.org/2000/svg">
<path fill-rule="evenodd" clip-rule="evenodd" d="M2.5 5C1.67157 5 1 5.67157 1 6.5V12.5C1 12.7761 0.776142 13 0.5 13C0.223858 13 0 12.7761 0 12.5V6.5C0 5.11929 1.11929 4 2.5 4H15C15.2761 4 15.5 4.22386 15.5 4.5C15.5 4.77614 15.2761 5 15 5H2.5Z" fill="#333333"/>
<path fill-rule="evenodd" clip-rule="evenodd" d="M11.1464 0.146447C11.3417 -0.0488155 11.6583 -0.0488155 11.8536 0.146447L15.1464 3.43934C15.7322 4.02513 15.7322 4.97487 15.1464 5.56066L12.3536 8.35355C12.1583 8.54882 11.8417 8.54882 11.6464 8.35355C11.4512 8.15829 11.4512 7.84171 11.6464 7.64645L14.4393 4.85355C14.6346 4.65829 14.6346 4.34171 14.4393 4.14645L11.1464 0.853553C10.9512 0.658291 10.9512 0.341709 11.1464 0.146447Z" fill="#333333"/>
<path fill-rule="evenodd" clip-rule="evenodd" d="M15.0858 12.5C15.9142 12.5 16.5858 11.8284 16.5858 11V5C16.5858 4.72386 16.8097 4.5 17.0858 4.5C17.362 4.5 17.5858 4.72386 17.5858 5V11C17.5858 12.3807 16.4665 13.5 15.0858 13.5H2.58582C2.30967 13.5 2.08582 13.2761 2.08582 13C2.08582 12.7239 2.30967 12.5 2.58582 12.5H15.0858Z" fill="#333333"/>
<path fill-rule="evenodd" clip-rule="evenodd" d="M6.43937 17.3536C6.24411 17.5488 5.92752 17.5488 5.73226 17.3536L2.43937 14.0607C1.85358 13.4749 1.85358 12.5251 2.43937 11.9393L5.23226 9.14645C5.42752 8.95118 5.74411 8.95118 5.93937 9.14645C6.13463 9.34171 6.13463 9.65829 5.93937 9.85355L3.14648 12.6464C2.95121 12.8417 2.95121 13.1583 3.14647 13.3536L6.43937 16.6464C6.63463 16.8417 6.63463 17.1583 6.43937 17.3536Z" fill="#333333"/>
</svg>
