<svg width="12" height="13" viewBox="0 0 12 13" fill="none" xmlns="http://www.w3.org/2000/svg">
<path fill-rule="evenodd" clip-rule="evenodd" d="M12 13H0V12H12V13Z" fill="#333333"/>
<path fill-rule="evenodd" clip-rule="evenodd" d="M5 10.5V0H6V10.5H5Z" fill="#333333"/>
<path fill-rule="evenodd" clip-rule="evenodd" d="M0.163667 4.63003C0.367996 4.44428 0.68422 4.45934 0.869974 4.66367L5.16451 9.38765C5.35654 9.59889 5.68617 9.60673 5.88803 9.40487L10.6465 4.64645C10.8417 4.45119 11.1583 4.45119 11.3536 4.64645C11.5488 4.84171 11.5488 5.15829 11.3536 5.35356L6.59514 10.112C5.98954 10.7176 5.00067 10.694 4.42457 10.0603L0.130033 5.33634C-0.05572 5.13201 -0.0406617 4.81579 0.163667 4.63003Z" fill="#333333"/>
</svg>
