<?xml version="1.0" encoding="utf-8"?>
<!-- Generator: Adobe Illustrator 26.0.3, SVG Export Plug-In . SVG Version: 6.00 Build 0)  -->
<svg version="1.1" id="Capa_1" xmlns="http://www.w3.org/2000/svg" xmlns:xlink="http://www.w3.org/1999/xlink" x="0px" y="0px"
	 viewBox="0 0 20 20" style="enable-background:new 0 0 20 20;" xml:space="preserve">
<style type="text/css">
	.st0{fill:#333333;}
</style>
<g>
	<path class="st0" d="M2,19c-0.2,0-0.4-0.1-0.5-0.2c-0.2-0.2-0.3-0.4-0.2-0.7l0.5-2.9c0.1-0.4,0.2-0.7,0.5-1h0L15.5,1l0.5,0l0.2,0.2
		L19,3.8c0.2,0.2,0.2,0.6,0,0.9L6,17.6c-0.3,0.3-0.6,0.5-1,0.6l-2.8,0.7C2.1,18.9,2,19,2,19z M2.9,15c-0.1,0.1-0.2,0.3-0.2,0.4
		l-0.4,2.5l2.4-0.6c0.2-0.1,0.4-0.2,0.6-0.3L18,4.3l-2.2-2.2L2.9,15z"/>
</g>
<g>
	<rect x="14.5" y="3.2" transform="matrix(0.7071 -0.7071 0.7071 0.7071 0.7235 12.1559)" class="st0" width="1" height="4.1"/>
</g>
</svg>
