<svg width="20" height="20" viewBox="0 0 20 20" fill="none" xmlns="http://www.w3.org/2000/svg">
<rect width="20" height="20" fill="white"/>
<path fill-rule="evenodd" clip-rule="evenodd" d="M17 2H5V17C5 17.5523 5.44772 18 6 18H16C16.5523 18 17 17.5523 17 17V2ZM5 1C4.44772 1 4 1.44772 4 2V17C4 18.1046 4.89543 19 6 19H16C17.1046 19 18 18.1046 18 17V2C18 1.44772 17.5523 1 17 1H5Z" fill="#333333"/>
<path d="M2 4C2 3.44772 2.44772 3 3 3H15C15.5523 3 16 3.44772 16 4V18C16 18.5523 15.5523 19 15 19H5C3.34315 19 2 17.6569 2 16V4Z" fill="white"/>
<path fill-rule="evenodd" clip-rule="evenodd" d="M15 4H3V16C3 17.1046 3.89543 18 5 18H15V4ZM3 3C2.44772 3 2 3.44772 2 4V16C2 17.6569 3.34315 19 5 19H15C15.5523 19 16 18.5523 16 18V4C16 3.44772 15.5523 3 15 3H3Z" fill="#333333"/>
<path fill-rule="evenodd" clip-rule="evenodd" d="M6 7C6 6.72386 6.22386 6.5 6.5 6.5H12.5C12.7761 6.5 13 6.72386 13 7C13 7.27614 12.7761 7.5 12.5 7.5H6.5C6.22386 7.5 6 7.27614 6 7Z" fill="#333333"/>
<path fill-rule="evenodd" clip-rule="evenodd" d="M4.5 15C4.5 14.7239 4.72386 14.5 5 14.5H8C8.27614 14.5 8.5 14.7239 8.5 15C8.5 15.2761 8.27614 15.5 8 15.5H5C4.72386 15.5 4.5 15.2761 4.5 15Z" fill="#333333"/>
<path fill-rule="evenodd" clip-rule="evenodd" d="M4.5 10C4.5 9.72386 4.72386 9.5 5 9.5L13 9.5C13.2761 9.5 13.5 9.72386 13.5 10C13.5 10.2761 13.2761 10.5 13 10.5L5 10.5C4.72386 10.5 4.5 10.2761 4.5 10Z" fill="#333333"/>
<path fill-rule="evenodd" clip-rule="evenodd" d="M4.5 12.5C4.5 12.2239 4.72386 12 5 12L13 12C13.2761 12 13.5 12.2239 13.5 12.5C13.5 12.7761 13.2761 13 13 13L5 13C4.72386 13 4.5 12.7761 4.5 12.5Z" fill="#333333"/>
</svg>
