<svg width="17" height="16" viewBox="0 0 17 16" fill="none" xmlns="http://www.w3.org/2000/svg">
<path fill-rule="evenodd" clip-rule="evenodd" d="M13 3.5H1V13.5C1 14.0523 1.44772 14.5 2 14.5H13V3.5ZM0 2.5V13.5C0 14.6046 0.89543 15.5 2 15.5H14V2.5H0Z" fill="#333333"/>
<path fill-rule="evenodd" clip-rule="evenodd" d="M13 2.5H14.7702C15.7217 2.5 16.4327 3.37446 16.2387 4.30593L13.9895 15.102L13.0105 14.898L15.2597 4.10198C15.3244 3.79149 15.0874 3.5 14.7702 3.5H13V2.5Z" fill="#333333"/>
<path fill-rule="evenodd" clip-rule="evenodd" d="M2.5 1C1.67157 1 1 1.67157 1 2.5H0C0 1.11929 1.11929 0 2.5 0H5.5386C6.26809 0 6.97934 0.227931 7.57294 0.651933L10.2906 2.59313L9.70938 3.40687L6.9917 1.46567C6.5677 1.16281 6.05966 1 5.5386 1H2.5Z" fill="#333333"/>
</svg>
