<svg width="20" height="20" viewBox="0 0 20 20" fill="none" xmlns="http://www.w3.org/2000/svg">
<path fill-rule="evenodd" clip-rule="evenodd" d="M8.61015 2.17574C8.37584 1.94142 7.99594 1.94142 7.76162 2.17574L1.46873 8.46863C0.843893 9.09347 0.843891 10.1065 1.46873 10.7314L7.76162 17.0243C7.99594 17.2586 8.37584 17.2586 8.61015 17.0243C8.84447 16.7899 8.84447 16.4101 8.61015 16.1757L2.31726 9.88284C2.16105 9.72663 2.16105 9.47337 2.31726 9.31716L8.61015 3.02426C8.84447 2.78995 8.84447 2.41005 8.61015 2.17574Z" fill="#333333"/>
<path fill-rule="evenodd" clip-rule="evenodd" d="M18.6102 2.17574C18.3758 1.94142 17.9959 1.94142 17.7616 2.17574L11.4687 8.46863C10.8439 9.09347 10.8439 10.1065 11.4687 10.7314L17.7616 17.0243C17.9959 17.2586 18.3758 17.2586 18.6102 17.0243C18.8445 16.7899 18.8445 16.4101 18.6102 16.1757L12.3173 9.88284C12.161 9.72663 12.161 9.47337 12.3173 9.31716L18.6102 3.02426C18.8445 2.78995 18.8445 2.41005 18.6102 2.17574Z" fill="#333333"/>
</svg>
