<svg width="19" height="18" viewBox="0 0 19 18" fill="none" xmlns="http://www.w3.org/2000/svg">
<path fill-rule="evenodd" clip-rule="evenodd" d="M16.7317 0.0246275C17.6524 -0.142783 18.5 0.564575 18.5 1.50043V12.993C18.5 13.982 17.5595 14.7004 16.6053 14.4401L7.60532 11.9856C6.95273 11.8076 6.5 11.2148 6.5 10.5384V3.1368C6.5 2.41187 7.01844 1.79067 7.73167 1.66099L16.7317 0.0246275ZM17.5 1.50043C17.5 1.18848 17.2175 0.952694 16.9106 1.0085L7.91056 2.64486C7.67281 2.68809 7.5 2.89515 7.5 3.1368V10.5384C7.5 10.7639 7.65091 10.9615 7.86844 11.0208L16.8684 13.4754C17.1865 13.5621 17.5 13.3227 17.5 12.993V1.50043Z" fill="#333333"/>
<path fill-rule="evenodd" clip-rule="evenodd" d="M1.5 2.80225C1.22386 2.80225 1 3.0261 1 3.30225V10.3022C1 10.5784 1.22386 10.8022 1.5 10.8022H6.5V2.80225H1.5ZM0 3.30225C0 2.47382 0.671573 1.80225 1.5 1.80225H7.5V11.8022H1.5C0.671573 11.8022 0 11.1307 0 10.3022V3.30225Z" fill="#333333"/>
<path fill-rule="evenodd" clip-rule="evenodd" d="M3.5 16.3022V11.8022H4.5V16.3022C4.5 16.5784 4.72386 16.8022 5 16.8022H6C6.27614 16.8022 6.5 16.5784 6.5 16.3022V11.8022H7.5V16.3022C7.5 17.1307 6.82843 17.8022 6 17.8022H5C4.17157 17.8022 3.5 17.1307 3.5 16.3022Z" fill="#333333"/>
</svg>
