<svg width="20" height="20" viewBox="0 0 20 20" fill="none" xmlns="http://www.w3.org/2000/svg">
<rect width="20" height="20" fill="white"/>
<path d="M20 10C20 15.5228 15.5228 20 10 20C4.47715 20 0 15.5228 0 10C0 4.47715 4.47715 0 10 0C15.5228 0 20 4.47715 20 10Z" fill="#E2E3E8"/>
<path fill-rule="evenodd" clip-rule="evenodd" d="M10.3334 12.6667C11.9903 12.6667 13.3334 11.3235 13.3334 9.66667C13.3334 8.00981 11.9903 6.66667 10.3334 6.66667C8.67656 6.66667 7.33341 8.00981 7.33341 9.66667C7.33341 11.3235 8.67656 12.6667 10.3334 12.6667ZM10.3334 13.3333C12.3585 13.3333 14.0001 11.6917 14.0001 9.66667C14.0001 7.64162 12.3585 6 10.3334 6C8.30837 6 6.66675 7.64162 6.66675 9.66667C6.66675 11.6917 8.30837 13.3333 10.3334 13.3333Z" fill="#6D7079"/>
<mask id="mask0_231_103" style="mask-type:alpha" maskUnits="userSpaceOnUse" x="0" y="0" width="20" height="20">
<path d="M20 10C20 15.5228 15.5228 20 10 20C4.47715 20 0 15.5228 0 10C0 4.47715 4.47715 0 10 0C15.5228 0 20 4.47715 20 10Z" fill="#F3F0F0"/>
</mask>
<g mask="url(#mask0_231_103)">
<path fill-rule="evenodd" clip-rule="evenodd" d="M10.3333 26C13.8311 26 16.6666 23.1645 16.6666 19.6667C16.6666 16.1689 13.8311 13.3333 10.3333 13.3333C6.83545 13.3333 3.99992 16.1689 3.99992 19.6667C3.99992 23.1645 6.83545 26 10.3333 26ZM10.3333 26.6667C14.1992 26.6667 17.3333 23.5327 17.3333 19.6667C17.3333 15.8007 14.1992 12.6667 10.3333 12.6667C6.46726 12.6667 3.33325 15.8007 3.33325 19.6667C3.33325 23.5327 6.46726 26.6667 10.3333 26.6667Z" fill="#6D7079"/>
</g>
</svg>
