<svg width="30" height="30" viewBox="0 0 30 30" fill="none" xmlns="http://www.w3.org/2000/svg">
<path d="M30 15C30 23.2843 23.2843 30 15 30C6.71573 30 0 23.2843 0 15C0 6.71573 6.71573 0 15 0C23.2843 0 30 6.71573 30 15Z" fill="#E2E3E8"/>
<path fill-rule="evenodd" clip-rule="evenodd" d="M15.5 19C17.9853 19 20 16.9853 20 14.5C20 12.0147 17.9853 10 15.5 10C13.0147 10 11 12.0147 11 14.5C11 16.9853 13.0147 19 15.5 19ZM15.5 20C18.5376 20 21 17.5376 21 14.5C21 11.4624 18.5376 9 15.5 9C12.4624 9 10 11.4624 10 14.5C10 17.5376 12.4624 20 15.5 20Z" fill="#6D7079"/>
<mask id="mask0_92_446" style="mask-type:alpha" maskUnits="userSpaceOnUse" x="0" y="0" width="30" height="30">
<path d="M30 15C30 23.2843 23.2843 30 15 30C6.71573 30 0 23.2843 0 15C0 6.71573 6.71573 0 15 0C23.2843 0 30 6.71573 30 15Z" fill="#F3F0F0"/>
</mask>
<g mask="url(#mask0_92_446)">
<path fill-rule="evenodd" clip-rule="evenodd" d="M15.5 39C20.7467 39 25 34.7467 25 29.5C25 24.2533 20.7467 20 15.5 20C10.2533 20 6 24.2533 6 29.5C6 34.7467 10.2533 39 15.5 39ZM15.5 40C21.299 40 26 35.299 26 29.5C26 23.701 21.299 19 15.5 19C9.70101 19 5 23.701 5 29.5C5 35.299 9.70101 40 15.5 40Z" fill="#6D7079"/>
</g>
</svg>
