<svg width="20" height="20" viewBox="0 0 20 20" fill="none" xmlns="http://www.w3.org/2000/svg">
<rect width="20" height="20" fill="white"/>
<path fill-rule="evenodd" clip-rule="evenodd" d="M2.06667 2L2.06667 18L1 18L0.999999 2L2.06667 2Z" fill="#333333"/>
<path fill-rule="evenodd" clip-rule="evenodd" d="M18.1333 10.5334L4.2666 10.5334L4.2666 9.46669L18.1333 9.46669L18.1333 10.5334Z" fill="#333333"/>
<path fill-rule="evenodd" clip-rule="evenodd" d="M10.7832 17.7723C10.5213 17.488 10.5425 17.048 10.8307 16.7896L17.4922 10.8146C17.7901 10.5474 17.8012 10.0888 17.5165 9.80796L10.8064 3.18755C10.531 2.91588 10.531 2.47542 10.8064 2.20375C11.0817 1.93208 11.5282 1.93208 11.8035 2.20375L18.5136 8.82416C19.3676 9.66673 19.3344 11.0425 18.4408 11.8441L11.7792 17.8191C11.4911 18.0775 11.0452 18.0566 10.7832 17.7723Z" fill="#333333"/>
</svg>
