<svg width="62" height="47" viewBox="0 0 62 47" fill="none" xmlns="http://www.w3.org/2000/svg">
<g filter="url(#filter0_d_114_85)">
<mask id="path-1-inside-1_114_85" fill="white">
<path fill-rule="evenodd" clip-rule="evenodd" d="M55.9906 0.725125L56.0001 0.714884L55.3008 0L23.5159 34.2762L6.67091 17.4733L6.65841 17.4872L6.62525 17.4542L4.29996 19.7958L6.00293 21.4869L6.10297 21.3862L6 21.5L23.5439 39L23.5439 39L23.5439 39L55.6988 4.32495L55.7047 4.33052L57.6387 2.2782L55.9906 0.725125Z"/>
</mask>
<path fill-rule="evenodd" clip-rule="evenodd" d="M55.9906 0.725125L56.0001 0.714884L55.3008 0L23.5159 34.2762L6.67091 17.4733L6.65841 17.4872L6.62525 17.4542L4.29996 19.7958L6.00293 21.4869L6.10297 21.3862L6 21.5L23.5439 39L23.5439 39L23.5439 39L55.6988 4.32495L55.7047 4.33052L57.6387 2.2782L55.9906 0.725125Z" fill="black"/>
<path d="M56.0001 0.714884L56.7333 1.39491L57.381 0.696554L56.715 0.0156398L56.0001 0.714884ZM55.9906 0.725125L55.2574 0.0451032L54.5827 0.7725L55.3048 1.4529L55.9906 0.725125ZM55.3008 0L56.0157 -0.699244L55.2815 -1.44986L54.5676 -0.679958L55.3008 0ZM23.5159 34.2762L22.8097 34.9842L23.5439 35.7166L24.2491 34.9562L23.5159 34.2762ZM6.67091 17.4733L7.37713 16.7654L6.63379 16.0239L5.92938 16.8024L6.67091 17.4733ZM6.65841 17.4872L5.95378 18.1967L6.69711 18.9349L7.39995 18.1581L6.65841 17.4872ZM6.62525 17.4542L7.32989 16.7447L6.62032 16.04L5.91568 16.7496L6.62525 17.4542ZM4.29996 19.7958L3.59039 19.0912L2.88575 19.8008L3.59533 20.5054L4.29996 19.7958ZM6.00293 21.4869L5.2983 22.1965L6.00787 22.9011L6.7125 22.1916L6.00293 21.4869ZM6.10297 21.3862L6.84449 22.0571L5.3934 20.6816L6.10297 21.3862ZM6 21.5L5.25848 20.8291L4.61944 21.5353L5.29378 22.208L6 21.5ZM23.5439 39L22.8376 39.708L23.5762 40.4447L24.281 39.6757L23.5439 39ZM23.5439 39L24.2659 38.308L23.5277 37.5378L22.8067 38.3242L23.5439 39ZM23.5439 39L22.822 39.6919L23.5559 40.4578L24.2772 39.68L23.5439 39ZM55.6988 4.32495L56.3847 3.59726L55.651 2.90574L54.9655 3.64499L55.6988 4.32495ZM55.7047 4.33052L55.0188 5.0582L55.7465 5.7442L56.4324 5.01634L55.7047 4.33052ZM57.6387 2.2782L58.3664 2.96402L59.0523 2.23624L58.3245 1.55043L57.6387 2.2782ZM55.2669 0.0348619L55.2574 0.0451032L56.7238 1.40515L56.7333 1.39491L55.2669 0.0348619ZM54.586 0.699244L55.2852 1.41413L56.715 0.0156398L56.0157 -0.699244L54.586 0.699244ZM24.2491 34.9562L56.0341 0.679958L54.5676 -0.679958L22.7826 33.5962L24.2491 34.9562ZM5.96469 18.1813L22.8097 34.9842L24.2221 33.5682L7.37713 16.7654L5.96469 18.1813ZM7.39995 18.1581L7.41245 18.1443L5.92938 16.8024L5.91688 16.8162L7.39995 18.1581ZM5.92062 18.1638L5.95378 18.1967L7.36305 16.7776L7.32989 16.7447L5.92062 18.1638ZM5.00953 20.5005L7.33482 18.1589L5.91568 16.7496L3.59039 19.0912L5.00953 20.5005ZM6.70756 20.7774L5.00459 19.0862L3.59533 20.5054L5.2983 22.1965L6.70756 20.7774ZM5.3934 20.6816L5.29336 20.7823L6.7125 22.1916L6.81254 22.0908L5.3934 20.6816ZM6.74152 22.1709L6.84449 22.0571L5.36145 20.7153L5.25848 20.8291L6.74152 22.1709ZM24.2501 38.292L6.70622 20.792L5.29378 22.208L22.8376 39.708L24.2501 38.292ZM22.8067 38.3242L22.8067 38.3243L24.281 39.6757L24.2811 39.6757L22.8067 38.3242ZM24.2659 38.3081L24.2659 38.308L22.8219 39.6919L22.822 39.6919L24.2659 38.3081ZM54.9655 3.64499L22.8107 38.32L24.2772 39.68L56.432 5.00491L54.9655 3.64499ZM56.3906 3.60283L56.3847 3.59726L55.0128 5.05264L55.0188 5.0582L56.3906 3.60283ZM56.9109 1.59238L54.9769 3.6447L56.4324 5.01634L58.3664 2.96402L56.9109 1.59238ZM55.3048 1.4529L56.9529 3.00597L58.3245 1.55043L56.6764 -0.00264781L55.3048 1.4529Z" fill="black" mask="url(#path-1-inside-1_114_85)"/>
</g>
<defs>
<filter id="filter0_d_114_85" x="0.300049" y="0" width="61.3386" height="47" filterUnits="userSpaceOnUse" color-interpolation-filters="sRGB">
<feFlood flood-opacity="0" result="BackgroundImageFix"/>
<feColorMatrix in="SourceAlpha" type="matrix" values="0 0 0 0 0 0 0 0 0 0 0 0 0 0 0 0 0 0 127 0" result="hardAlpha"/>
<feOffset dy="4"/>
<feGaussianBlur stdDeviation="2"/>
<feComposite in2="hardAlpha" operator="out"/>
<feColorMatrix type="matrix" values="0 0 0 0 0 0 0 0 0 0 0 0 0 0 0 0 0 0 0.25 0"/>
<feBlend mode="normal" in2="BackgroundImageFix" result="effect1_dropShadow_114_85"/>
<feBlend mode="normal" in="SourceGraphic" in2="effect1_dropShadow_114_85" result="shape"/>
</filter>
</defs>
</svg>
