<svg width="17" height="14" viewBox="0 0 17 14" fill="none" xmlns="http://www.w3.org/2000/svg">
<path fill-rule="evenodd" clip-rule="evenodd" d="M6.26318 1.78949H17V2.68423H6.26318V1.78949Z" fill="#333333"/>
<path fill-rule="evenodd" clip-rule="evenodd" d="M6.26318 6.26318H17V7.15792H6.26318V6.26318Z" fill="#333333"/>
<path fill-rule="evenodd" clip-rule="evenodd" d="M6.26318 10.7368H17V11.6316H6.26318V10.7368Z" fill="#333333"/>
<path fill-rule="evenodd" clip-rule="evenodd" d="M5.2122 0.107709C5.39979 0.268503 5.42151 0.550927 5.26072 0.73852L2.26211 4.2369L0.131031 2.10582C-0.0436771 1.93111 -0.0436771 1.64785 0.131031 1.47314C0.305739 1.29844 0.588997 1.29844 0.763706 1.47314L2.21157 2.92101L4.58139 0.156233C4.74218 -0.0313601 5.0246 -0.053085 5.2122 0.107709Z" fill="#333333"/>
<path fill-rule="evenodd" clip-rule="evenodd" d="M5.2122 4.5814C5.39979 4.7422 5.42151 5.02462 5.26072 5.21221L2.26211 8.71059L0.131031 6.57951C-0.0436771 6.4048 -0.0436771 6.12155 0.131031 5.94684C0.305739 5.77213 0.588997 5.77213 0.763706 5.94684L2.21157 7.39471L4.58139 4.62993C4.74218 4.44233 5.0246 4.42061 5.2122 4.5814Z" fill="#333333"/>
<path fill-rule="evenodd" clip-rule="evenodd" d="M5.2122 9.0551C5.39979 9.21589 5.42151 9.49831 5.26072 9.68591L2.26211 13.1843L0.131031 11.0532C-0.0436771 10.8785 -0.0436771 10.5952 0.131031 10.4205C0.305739 10.2458 0.588997 10.2458 0.763706 10.4205L2.21157 11.8684L4.58139 9.10362C4.74218 8.91603 5.0246 8.8943 5.2122 9.0551Z" fill="#333333"/>
</svg>
